<?xml version="1.0" encoding="UTF-8"?>
<svg id="Layer_2" data-name="Layer 2" xmlns="http://www.w3.org/2000/svg" viewBox="0 0 310.34 306.65">
  <defs>
    <style>
      .cls-1 {
        fill: #ae1c3f;
      }

      .cls-1, .cls-2, .cls-3 {
        stroke-width: 0px;
      }

      .cls-2 {
        fill: #053e2b;
      }

      .cls-3 {
        fill: #fd0;
      }
    </style>
  </defs>
  <g id="Layer_1-2" data-name="Layer 1">
    <path class="cls-2" d="M16.62.8C20.2-.22,23.95.04,27.62,0,87.06.02,146.5,0,205.94,0c-4.04,4.12-8.15,8.16-12.29,12.17.59-3.21.67-6.49.65-9.75-12.54.25-25.77,3.21-35.44,11.66-5.34,4.57-8.58,11.04-10.32,17.75-10.08,3.35-19.97,9.57-24.44,19.6-2.83,5.57-3.02,11.89-3.19,17.99-3.15,6.07-6.09,12.62-5.09,19.68C78.96,125.56,42.06,161.98,5.19,198.42c-1.62,1.65-3.23,3.34-5.16,4.65-.02-58.41.03-116.82,0-175.22.04-3.72-.23-7.5.73-11.13C2.61,9.04,8.98,2.74,16.62.8Z"/>
    <path class="cls-2" d="M159.98,40.91c2.56-1.04,5.15-2.04,7.71-3.07-2.71,2.74-5.45,5.48-8.26,8.13.22-1.68.38-3.37.55-5.06Z"/>
    <path class="cls-2" d="M209.62,201.53c33.58-33.13,67.12-66.32,100.7-99.45,0,58.58-.03,117.16-.03,175.75-.06,4.54.37,9.23-1.22,13.59-2.99,8.9-11.97,15.28-21.36,15.2-61.48.06-122.95-.01-184.43.03,2.17-2.21,4.29-4.5,6.76-6.39-.04,1.57-.06,3.13-.08,4.7,6.28-2.02,12.45-4.45,18.93-5.82,8.77-1.61,17.75-4.41,24.35-10.7,5.77-5.19,8.41-12.96,8.57-20.57,7.97-3.24,17.08-5.08,23.18-11.62,5.31-5.39,7.5-12.9,8.62-20.2,4.33-3.34,8.93-6.64,11.79-11.43,4.5-6.7,6.22-15.22,4.22-23.09Z"/>
    <path class="cls-2" d="M142.29,268.19c1.53-1.68,3.15-3.28,4.82-4.82-.02,1.32-.05,2.65-.06,3.97-1.59.28-3.18.55-4.76.85Z"/>
    <path class="cls-1" d="M219.87.02c22.93.09,45.86-.05,68.78.06,11.42.15,21.62,10.2,21.65,21.67.07,22.23.03,44.45,0,66.68-34.25,33.79-68.49,67.6-102.67,101.45-3.18,3.7,1.66,7.71,1.99,11.65,2,7.87.28,16.39-4.22,23.09-2.86,4.79-7.46,8.09-11.79,11.43-1.12,7.3-3.31,14.81-8.62,20.2-6.1,6.54-15.21,8.38-23.18,11.62-.16,7.61-2.8,15.38-8.57,20.57-6.6,6.29-15.58,9.09-24.35,10.7-6.48,1.37-12.65,3.8-18.93,5.82.02-1.57.04-3.13.08-4.7.9-9.33,4.65-18.84,12.02-24.92,5.97-4.14,13.32-5.41,20.23-7.15,1.58-.3,3.17-.57,4.76-.85.01-1.32.04-2.65.06-3.97.43-7.45,3.52-14.85,9.1-19.92,4.87-4.64,11.33-6.93,17.45-9.4-.18-3.99.3-7.96,1.24-11.84-28.55,28.11-56.99,56.33-85.53,84.44-20.62-.01-41.24-.01-61.85,0-3.66-.03-7.4.17-10.96-.86-7.6-1.99-13.9-8.29-15.8-15.93C-.06,286.92,0,283.84,0,280.82c.06-21.16-.05-42.32.06-63.47,39.67-39.14,79.26-78.35,118.87-117.56-1.54-3.39-2.71-6.97-3.11-10.68-1-7.06,1.94-13.61,5.09-19.68.17-6.1.36-12.42,3.19-17.99,4.47-10.03,14.36-16.25,24.44-19.6,1.74-6.71,4.98-13.18,10.32-17.75,9.67-8.45,22.9-11.41,35.44-11.66.02,3.26-.06,6.54-.65,9.75-1.73,7.01-5.09,14.24-11.42,18.2-4.55,3.02-9.53,5.32-14.54,7.46-2.56,1.03-5.15,2.03-7.71,3.07-.17,1.69-.33,3.38-.55,5.06-2.25,9.73-10.6,16.26-18.92,20.83,1.41,2.78,2.4,5.76,2.89,8.84C168.87,50.41,194.34,25.18,219.87.02ZM158.39,17.61c-6.23,6.39-8.6,15.54-8.49,24.26,10.18-3.13,20.26-6.91,29.51-12.23,8.81-4.83,12.68-15.4,12.78-24.98-12.17.61-25.12,3.86-33.8,12.95ZM127.81,49.14c-4.83,7.54-5.43,17.02-3.65,25.61,6.84-5.15,14.47-9.08,21.59-13.81,6.44-4.37,11.75-11.26,12.12-19.29-3.33,1.11-6.66,2.27-10.04,3.22-.11-3.54,0-7.08.3-10.6-7.96,2.92-15.78,7.47-20.32,14.87ZM123.15,78.96c-.49-1.89-.84-3.87-2.04-5.46-2.74,5.35-4.06,11.53-2.81,17.49,1.43,8.73,7.85,15.41,13.85,21.42,2.78-5.32,4.08-11.29,6.14-16.91,3.11-8.72,5.04-19.03.32-27.54-5.38,3.32-11.07,6.34-15.46,11ZM133.74,115.56c-2.33-1.26-4.44-2.88-6.47-4.56-.03,3.69.3,7.54,2.27,10.76,3.33,5.8,9.49,9.09,15.46,11.58,6.15,2.47,11.97,5.63,17.73,8.91.87-7.81-.21-16.16-4.8-22.72-4.77-7.09-12.56-11.38-20.47-14.09-1.44,3.29-2.5,6.74-3.72,10.12ZM164.47,145.84c-3.09-1.79-6.15-3.64-9.33-5.25,1.63,5.74,4.82,11.61,10.46,14.23,8.86,4.49,18.12,8.14,26.9,12.8.75-7.13-.04-14.69-3.99-20.84-5.21-8.64-14.52-13.55-23.7-16.92.41,5.33.54,10.69-.34,15.98ZM193.65,171.37c-3.94-2.54-7.91-5.24-12.45-6.56-2.97,14.22,7.01,25.96,11.84,38.41.7,1.11.6,3.05,2.03,3.54,7.32-5.87,11.29-15.63,9.7-24.94-.71-7.35-5.17-13.49-9.68-19.03-.29,2.89-.72,5.77-1.44,8.58ZM205.33,196.39c-2.6,5.93-6.89,11.04-12.36,14.52-.37-1.95-.56-4-1.72-5.67-4.71,4.34-10.25,8.27-12.87,14.34-3.7,8-2.86,17.24-.25,25.43,3.59-2.18,6.59-5.18,10.03-7.57,5.71-4.56,12.41-8.43,16.04-15.03,4.82-7.69,5.71-18.03,1.13-26.02ZM155.33,247.53c-5.36,6.24-6.94,14.9-5.84,22.89,8.83-4.02,18.23-6.62,27.06-10.61,8.35-3.98,13.18-12.83,14.49-21.7-4.79,3.29-9.3,6.96-13.48,11-1.92-4.02-2.92-8.37-3.8-12.71-6.73,2.51-13.78,5.38-18.43,11.13ZM148.02,273.93c-.24-1.44-.48-2.87-.72-4.3-7.88,1.43-16.07,2.83-23.09,6.88-7.93,5.79-11.55,15.89-12.03,25.4,6.31-2.2,12.67-4.3,19.24-5.58,7.61-1.4,15.17-4.43,20.75-9.93,4.79-4.58,7.15-11.16,7.43-17.7-4.02,1.37-7.94,3.04-11.58,5.23Z"/>
    <path class="cls-3" d="M158.39,17.61c8.68-9.09,21.63-12.34,33.8-12.95-.1,9.58-3.97,20.15-12.78,24.98-9.25,5.32-19.33,9.1-29.51,12.23-.11-8.72,2.26-17.87,8.49-24.26Z"/>
    <path class="cls-3" d="M127.81,49.14c4.54-7.4,12.36-11.95,20.32-14.87-.3,3.52-.41,7.06-.3,10.6,3.38-.95,6.71-2.11,10.04-3.22-.37,8.03-5.68,14.92-12.12,19.29-7.12,4.73-14.75,8.66-21.59,13.81-1.78-8.59-1.18-18.07,3.65-25.61Z"/>
    <path class="cls-3" d="M123.15,78.96c4.39-4.66,10.08-7.68,15.46-11,4.72,8.51,2.79,18.82-.32,27.54-2.06,5.62-3.36,11.59-6.14,16.91-6-6.01-12.42-12.69-13.85-21.42-1.25-5.96.07-12.14,2.81-17.49,1.2,1.59,1.55,3.57,2.04,5.46Z"/>
    <path class="cls-3" d="M133.74,115.56c1.22-3.38,2.28-6.83,3.72-10.12,7.91,2.71,15.7,7,20.47,14.09,4.59,6.56,5.67,14.91,4.8,22.72-5.76-3.28-11.58-6.44-17.73-8.91-5.97-2.49-12.13-5.78-15.46-11.58-1.97-3.22-2.3-7.07-2.27-10.76,2.03,1.68,4.14,3.3,6.47,4.56Z"/>
    <path class="cls-3" d="M164.47,145.84c.88-5.29.75-10.65.34-15.98,9.18,3.37,18.49,8.28,23.7,16.92,3.95,6.15,4.74,13.71,3.99,20.84-8.78-4.66-18.04-8.31-26.9-12.8-5.64-2.62-8.83-8.49-10.46-14.23,3.18,1.61,6.24,3.46,9.33,5.25Z"/>
    <path class="cls-3" d="M193.65,171.37c.72-2.81,1.15-5.69,1.44-8.58,4.51,5.54,8.97,11.68,9.68,19.03,1.59,9.31-2.38,19.07-9.7,24.94-1.43-.49-1.33-2.43-2.03-3.54-4.83-12.45-14.81-24.19-11.84-38.41,4.54,1.32,8.51,4.02,12.45,6.56Z"/>
    <path class="cls-3" d="M205.33,196.39c4.58,7.99,3.69,18.33-1.13,26.02-3.63,6.6-10.33,10.47-16.04,15.03-3.44,2.39-6.44,5.39-10.03,7.57-2.61-8.19-3.45-17.43.25-25.43,2.62-6.07,8.16-10,12.87-14.34,1.16,1.67,1.35,3.72,1.72,5.67,5.47-3.48,9.76-8.59,12.36-14.52Z"/>
    <path class="cls-3" d="M155.33,247.53c4.65-5.75,11.7-8.62,18.43-11.13.88,4.34,1.88,8.69,3.8,12.71,4.18-4.04,8.69-7.71,13.48-11-1.31,8.87-6.14,17.72-14.49,21.7-8.83,3.99-18.23,6.59-27.06,10.61-1.1-7.99.48-16.65,5.84-22.89Z"/>
    <path class="cls-3" d="M148.02,273.93c3.64-2.19,7.56-3.86,11.58-5.23-.28,6.54-2.64,13.12-7.43,17.7-5.58,5.5-13.14,8.53-20.75,9.93-6.57,1.28-12.93,3.38-19.24,5.58.48-9.51,4.1-19.61,12.03-25.4,7.02-4.05,15.21-5.45,23.09-6.88.24,1.43.48,2.86.72,4.3Z"/>
  </g>
</svg>